<svg xmlns="http://www.w3.org/2000/svg" width="420" height="600" viewBox="0 0 420 600" font-family="'Segoe UI', Tahoma, 'Arial Unicode MS', Arial, sans-serif" direction="rtl">
  <defs>
    <linearGradient id="bg" x1="0" y1="0" x2="0.4" y2="1">
      <stop offset="0%" stop-color="#8b8fa8" stop-opacity="0.30"/>
      <stop offset="55%" stop-color="#0a0c18" stop-opacity="0.97"/>
      <stop offset="100%" stop-color="#05070f"/>
    </linearGradient>
    <clipPath id="frame"><rect x="8" y="8" width="404" height="584" rx="26"/></clipPath>
  </defs>

  <rect width="420" height="600" rx="30" fill="#05070f"/>
  <g clip-path="url(#frame)">
    <rect x="8" y="8" width="404" height="584" rx="26" fill="url(#bg)"/>

    <!-- الرأس: التكلفة والرقم -->
    <circle cx="66" cy="66" r="30" fill="#8b8fa8"/>
    <text x="66" y="66" fill="#05070f" font-size="34" font-weight="900" text-anchor="middle" dominant-baseline="central">5</text>
    <rect x="302" y="40" width="86" height="52" rx="14" fill="#000" opacity="0.55"/>
    <text x="345" y="66" fill="#8b8fa8" font-size="32" font-weight="900" text-anchor="middle" dominant-baseline="central">9</text>

    <!-- لوحة الرسم -->
    <rect x="34" y="112" width="352" height="238" rx="18" fill="#000" opacity="0.35"/>
    <rect x="34" y="112" width="352" height="238" rx="18" fill="none" stroke="#8b8fa8" stroke-opacity="0.45" stroke-width="2"/>
    <g transform="translate(34 112) scale(3.3846153846153846 2.7045454545454546)"><defs><radialGradient id="art-mon_dark_voido_2" cx="50%" cy="42%" r="62%"><stop offset="0%" stop-color="#98a0bd" stop-opacity="0.36"></stop><stop offset="70%" stop-color="#252a45" stop-opacity="0.16"></stop><stop offset="100%" stop-color="#05070f" stop-opacity="0"></stop></radialGradient></defs><rect x="0" y="0" width="104" height="88" fill="url(#art-mon_dark_voido_2)" rx="8"></rect><g><rect x="21" y="44" width="10" height="28" rx="4" fill="#252a45"></rect><rect x="73" y="44" width="10" height="28" rx="4" fill="#252a45"></rect><rect x="32" y="38" width="40" height="34" rx="6" fill="#98a0bd"></rect><rect x="37" y="46" width="30" height="16" rx="3" fill="#d3d8ea" opacity="0.28"></rect><rect x="38" y="12" width="28" height="24" rx="5" fill="#98a0bd"></rect><rect x="43" y="20" width="18" height="6" rx="3" fill="#0b0e1c"></rect><circle cx="47" cy="23" r="1.8" fill="#d3d8ea"></circle><circle cx="57" cy="23" r="1.8" fill="#d3d8ea"></circle><rect x="34" y="72" width="12" height="9" rx="3" fill="#252a45"></rect><rect x="58" y="72" width="12" height="9" rx="3" fill="#252a45"></rect><path d="M52 6 L58 14 L46 14 Z" fill="#d3d8ea"></path></g></g>

    <!-- الاسم -->
    <text x="210" y="400" fill="#eef1ff" font-size="34" font-weight="900" text-anchor="middle">فويدوس</text>
    <text x="210" y="430" fill="#8b8fa8" font-size="19" text-anchor="middle" opacity="0.9">وحش · ظلام · متطوّر</text>
    <line x1="46" y1="448" x2="374" y2="448" stroke="#8b8fa8" stroke-opacity="0.35" stroke-width="2"/>

    <!-- النص -->
    <text x="210" y="478" fill="#cfd5ee" font-size="18" text-anchor="middle" opacity="0.88">وحش متطوّر. اختراق: الضرر الزائد</text>
    <text x="210" y="504" fill="#cfd5ee" font-size="18" text-anchor="middle" opacity="0.88">يصيب الخصم مباشرة.</text>

    <rect x="34" y="512" width="352" height="52" rx="14" fill="#000" opacity="0.45"/>
    <text x="324" y="538" fill="#ffb37a" font-size="26" font-weight="900" text-anchor="middle" direction="ltr" dominant-baseline="central">⚔ 6</text>
    <text x="210" y="538" fill="#8b8fa8" font-size="19" text-anchor="middle" dominant-baseline="central">اختراق</text>
    <text x="96" y="538" fill="#8ff0bd" font-size="26" font-weight="900" text-anchor="middle" direction="ltr" dominant-baseline="central">❤ 11</text>
  </g>
  <rect x="8" y="8" width="404" height="584" rx="26" fill="none" stroke="#8b8fa8" stroke-opacity="0.55" stroke-width="3"/>
</svg>