<svg xmlns="http://www.w3.org/2000/svg" width="420" height="600" viewBox="0 0 420 600" font-family="'Segoe UI', Tahoma, 'Arial Unicode MS', Arial, sans-serif" direction="rtl">
  <defs>
    <linearGradient id="bg" x1="0" y1="0" x2="0.4" y2="1">
      <stop offset="0%" stop-color="#46d17f" stop-opacity="0.30"/>
      <stop offset="55%" stop-color="#0a0c18" stop-opacity="0.97"/>
      <stop offset="100%" stop-color="#05070f"/>
    </linearGradient>
    <clipPath id="frame"><rect x="8" y="8" width="404" height="584" rx="26"/></clipPath>
  </defs>

  <rect width="420" height="600" rx="30" fill="#05070f"/>
  <g clip-path="url(#frame)">
    <rect x="8" y="8" width="404" height="584" rx="26" fill="url(#bg)"/>

    <!-- الرأس: التكلفة والرقم -->
    <circle cx="66" cy="66" r="30" fill="#46d17f"/>
    <text x="66" y="66" fill="#05070f" font-size="34" font-weight="900" text-anchor="middle" dominant-baseline="central">5</text>
    <rect x="302" y="40" width="86" height="52" rx="14" fill="#000" opacity="0.55"/>
    <text x="345" y="66" fill="#46d17f" font-size="32" font-weight="900" text-anchor="middle" dominant-baseline="central">9</text>

    <!-- لوحة الرسم -->
    <rect x="34" y="112" width="352" height="238" rx="18" fill="#000" opacity="0.35"/>
    <rect x="34" y="112" width="352" height="238" rx="18" fill="none" stroke="#46d17f" stroke-opacity="0.45" stroke-width="2"/>
    <g transform="translate(34 112) scale(3.3846153846153846 2.7045454545454546)"><defs><radialGradient id="art-mon_grass_ghabor_2" cx="50%" cy="42%" r="62%"><stop offset="0%" stop-color="#5fdc93" stop-opacity="0.36"></stop><stop offset="70%" stop-color="#14663c" stop-opacity="0.16"></stop><stop offset="100%" stop-color="#05070f" stop-opacity="0"></stop></radialGradient></defs><rect x="0" y="0" width="104" height="88" fill="url(#art-mon_grass_ghabor_2)" rx="8"></rect><g><path d="M28 56 Q12 54 8 38" stroke="#14663c" stroke-width="7" stroke-linecap="round" fill="none"></path><ellipse cx="52" cy="52" rx="24" ry="17" fill="#5fdc93"></ellipse><ellipse cx="52" cy="57" rx="20" ry="10" fill="#14663c" opacity="0.45"></ellipse><rect x="38" y="62" width="8" height="14" rx="3" fill="#14663c"></rect><rect x="50" y="62" width="8" height="14" rx="3" fill="#14663c"></rect><rect x="62" y="62" width="8" height="14" rx="3" fill="#14663c"></rect><circle cx="70" cy="36" r="16" fill="#5fdc93"></circle><circle cx="70" cy="36" r="16" fill="none" stroke="#14663c" stroke-width="1.5" opacity="0.6"></circle><path d="M62 25 L64 10 L68 25 Z" fill="#c2f5d5"></path><path d="M70 25 L72 10 L76 25 Z" fill="#c2f5d5"></path><path d="M78 25 L80 10 L84 25 Z" fill="#c2f5d5"></path><circle cx="65" cy="34" r="3" fill="#0b0e1c"></circle><circle cx="76" cy="34" r="3" fill="#0b0e1c"></circle><circle cx="66" cy="33" r="1" fill="#c2f5d5"></circle><circle cx="77" cy="33" r="1" fill="#c2f5d5"></circle><path d="M65 44 L67 49 L69 44 Z" fill="#fff" opacity="0.9"></path><path d="M73 44 L75 49 L77 44 Z" fill="#fff" opacity="0.9"></path></g></g>

    <!-- الاسم -->
    <text x="210" y="400" fill="#eef1ff" font-size="34" font-weight="900" text-anchor="middle">غابورون</text>
    <text x="210" y="430" fill="#46d17f" font-size="19" text-anchor="middle" opacity="0.9">وحش · عشب · متطوّر</text>
    <line x1="46" y1="448" x2="374" y2="448" stroke="#46d17f" stroke-opacity="0.35" stroke-width="2"/>

    <!-- النص -->
    <text x="210" y="478" fill="#cfd5ee" font-size="18" text-anchor="middle" opacity="0.88">وحش متطوّر. حراسة: يتلقى ضرراً أقل</text>
    <text x="210" y="504" fill="#cfd5ee" font-size="18" text-anchor="middle" opacity="0.88">بمقدار 1.</text>

    <rect x="34" y="512" width="352" height="52" rx="14" fill="#000" opacity="0.45"/>
    <text x="324" y="538" fill="#ffb37a" font-size="26" font-weight="900" text-anchor="middle" direction="ltr" dominant-baseline="central">⚔ 8</text>
    <text x="210" y="538" fill="#46d17f" font-size="19" text-anchor="middle" dominant-baseline="central">حراسة</text>
    <text x="96" y="538" fill="#8ff0bd" font-size="26" font-weight="900" text-anchor="middle" direction="ltr" dominant-baseline="central">❤ 12</text>
  </g>
  <rect x="8" y="8" width="404" height="584" rx="26" fill="none" stroke="#46d17f" stroke-opacity="0.55" stroke-width="3"/>
</svg>