<svg xmlns="http://www.w3.org/2000/svg" width="420" height="600" viewBox="0 0 420 600" font-family="'Segoe UI', Tahoma, 'Arial Unicode MS', Arial, sans-serif" direction="ltr">
  <defs>
    <linearGradient id="bg" x1="0" y1="0" x2="0.4" y2="1">
      <stop offset="0%" stop-color="#46d17f" stop-opacity="0.30"/>
      <stop offset="55%" stop-color="#0a0c18" stop-opacity="0.97"/>
      <stop offset="100%" stop-color="#05070f"/>
    </linearGradient>
    <clipPath id="frame"><rect x="8" y="8" width="404" height="584" rx="26"/></clipPath>
  </defs>

  <rect width="420" height="600" rx="30" fill="#05070f"/>
  <g clip-path="url(#frame)">
    <rect x="8" y="8" width="404" height="584" rx="26" fill="url(#bg)"/>

    <!-- الرأس: التكلفة والرقم -->
    <circle cx="66" cy="66" r="30" fill="#46d17f"/>
    <text x="66" y="66" fill="#05070f" font-size="34" font-weight="900" text-anchor="middle" dominant-baseline="central">2</text>
    <rect x="302" y="40" width="86" height="52" rx="14" fill="#000" opacity="0.55"/>
    <text x="345" y="66" fill="#46d17f" font-size="32" font-weight="900" text-anchor="middle" dominant-baseline="central">5</text>

    <!-- لوحة الرسم -->
    <rect x="34" y="112" width="352" height="238" rx="18" fill="#000" opacity="0.35"/>
    <rect x="34" y="112" width="352" height="238" rx="18" fill="none" stroke="#46d17f" stroke-opacity="0.45" stroke-width="2"/>
    <g transform="translate(34 112) scale(3.3846153846153846 2.7045454545454546)"><defs><radialGradient id="art-trap_net" cx="50%" cy="42%" r="62%"><stop offset="0%" stop-color="#5fdc93" stop-opacity="0.36"></stop><stop offset="70%" stop-color="#14663c" stop-opacity="0.16"></stop><stop offset="100%" stop-color="#05070f" stop-opacity="0"></stop></radialGradient></defs><rect x="0" y="0" width="104" height="88" fill="url(#art-trap_net)" rx="8"></rect><g stroke="#5fdc93" stroke-width="2.5" fill="none"><line x1="28" y1="22" x2="28" y2="70"></line><line x1="40" y1="22" x2="40" y2="70"></line><line x1="52" y1="22" x2="52" y2="70"></line><line x1="64" y1="22" x2="64" y2="70"></line><line x1="76" y1="22" x2="76" y2="70"></line><line x1="28" y1="22" x2="76" y2="22"></line><line x1="28" y1="38" x2="76" y2="38"></line><line x1="28" y1="54" x2="76" y2="54"></line><line x1="28" y1="70" x2="76" y2="70"></line><circle cx="28" cy="38" r="2" fill="#c2f5d5" stroke="none"></circle><circle cx="40" cy="38" r="2" fill="#c2f5d5" stroke="none"></circle><circle cx="52" cy="38" r="2" fill="#c2f5d5" stroke="none"></circle><circle cx="64" cy="38" r="2" fill="#c2f5d5" stroke="none"></circle><circle cx="76" cy="38" r="2" fill="#c2f5d5" stroke="none"></circle></g></g>

    <!-- الاسم -->
    <text x="210" y="400" fill="#eef1ff" font-size="34" font-weight="900" text-anchor="middle">Net</text>
    <text x="210" y="430" fill="#46d17f" font-size="19" text-anchor="middle" opacity="0.9">Trap · Grass</text>
    <line x1="46" y1="448" x2="374" y2="448" stroke="#46d17f" stroke-opacity="0.35" stroke-width="2"/>

    <!-- النص -->
    <text x="210" y="478" fill="#cfd5ee" font-size="18" text-anchor="middle" opacity="0.88">At the start of the opponent's turn:</text>
    <text x="210" y="504" fill="#cfd5ee" font-size="18" text-anchor="middle" opacity="0.88">they cannot attack this turn.</text>

    
  </g>
  <rect x="8" y="8" width="404" height="584" rx="26" fill="none" stroke="#46d17f" stroke-opacity="0.55" stroke-width="3"/>
</svg>